<?xml version="1.0" encoding="UTF-8"?>
<svg xmlns="http://www.w3.org/2000/svg" viewBox="0 0 250 219">
  <path fill="#fff" d="M98.03,57.332l88.158,152.694-16.244,9.379L81.786,66.711l-6.5,3.751L70.6,62.34s-22.117,9.464-11.634,38.5c0,0-22.838,6.366-47.678-24.733S10.22,17.846,10.22,17.846,21.1,35.126,53.718,33.1l-3.751-6.5,6.5-3.751-7.5-13L65.205,0.478l7.5,13,4.873-2.814,3.751,6.5,13-7.5,23.446,40.61L98.214,46.4l4.689,8.122Z"></path>
  <path fill="#fff" d="m151.88 57.332-88.157 152.69 16.244 9.379 88.157-152.69 6.5 3.751 4.689-8.122s22.117 9.464 11.634 38.5c0 0 22.838 6.366 47.679-24.733s1.066-58.258 1.066-58.258-10.888 17.277-43.499 15.251l3.751-6.5-6.5-3.751 7.5-13-16.24-9.371-7.5 13-4.873-2.814-3.751 6.5-13-7.5-23.447 40.61 19.564-3.874-4.693 8.119z"></path>
</svg>
